# Blender v3.4.1 OBJ File: ''
# www.blender.org
mtllib img-changed.mtl
o WhatsApp_Image_2023-03-27_at_20.41.15
v -0.502460 0.018342 0.496620
v -0.495638 0.017958 -0.503354
v 0.502460 0.022987 -0.496620
v 0.495638 0.023371 0.503354
v -0.507243 0.042846 0.496223
v 0.490855 0.047874 0.502957
v 0.497676 0.047491 -0.497017
v -0.500421 0.042462 -0.503751
vt 0.000000 0.000000
vt 0.000000 1.000000
vt 1.000000 1.000000
vt 1.000000 0.000000
vt 0.000000 0.000000
vt 1.000000 0.000000
vt 1.000000 1.000000
vt 0.000000 1.000000
vn 0.0050 -1.0000 0.0004
vn -0.0050 1.0000 -0.0004
vn 0.9814 0.1917 0.0066
vn -0.9814 -0.1917 -0.0066
vn 0.0068 -0.0149 -0.9999
vn -0.0068 0.0149 0.9999
usemtl WhatsApp_Image_2023-03-27_at_20.41.15
s 1
f 1/1/1 2/2/1 3/3/1 4/4/1
f 5/5/2 6/6/2 7/7/2 8/8/2
f 4/4/3 3/3/3 7/7/3 6/6/3
f 2/2/4 1/1/4 5/5/4 8/8/4
f 3/3/5 2/2/5 8/8/5 7/7/5
f 1/1/6 4/4/6 6/6/6 5/5/6
